<svg width="80" height="27" viewBox="0 0 80 27" fill="none" xmlns="http://www.w3.org/2000/svg">
<path d="M8.3256 3.17054L7.20646 5.35892C7.20646 5.35892 5.99032 4.21245 4.94952 3.96971C3.52821 4.00332 3.43122 7.61079 4.28923 9.07469C5.14724 10.5386 7.24376 13.8174 7.59816 15.7108C7.95255 17.6041 8.20623 19.2398 7.59816 21.234C6.99009 23.2282 3.25962 27 3.25962 27L0.346118 23.6651C0.346118 23.6651 2.75974 21.1145 3.46852 19.7141C4.17731 18.3137 3.81546 17.3315 3.46852 15.8154C2.94999 13.5 0.659478 10.673 0.346118 9.63112C0.0327587 8.58921 -0.243296 7.58838 0.346118 5.42614C0.935533 3.2639 3.22604 0 4.33773 0C5.44941 0 8.3256 3.17054 8.3256 3.17054Z" fill="#1F4287"/>
<path d="M12.5 1.27718V7.99917C12.5 7.99917 14.175 6.539 15.6858 6.539C17.1967 6.539 17.8197 7.52863 17.8197 8.83195V21.3386H14.5928V10.4564C14.5928 8.73112 12.5 8.71245 12.5 10.4564V21.3386H9.2806V1.27718H12.5Z" fill="#1F4287"/>
<path d="M27.3958 21.3386C27.3958 21.3386 27.0227 10.8523 26.6795 9.29876C26.5674 8.79395 26.3493 8.31881 26.0397 7.90489C25.73 7.49096 25.336 7.14774 24.8836 6.89801C24.4313 6.64829 23.931 6.49778 23.4161 6.45648C22.9012 6.41519 22.3834 6.48405 21.8971 6.65851C21.0129 6.97593 19.3491 8.26805 19.3491 8.26805V11.5357C19.3491 11.5357 21.4494 9.97095 22.1209 9.90373C22.3847 9.85342 22.6575 9.88388 22.9037 9.99114C23.1499 10.0984 23.3581 10.2775 23.5012 10.505C23.5836 10.6642 23.6266 10.841 23.6266 11.0203C23.6266 11.1997 23.5836 11.3764 23.5012 11.5357C23.3706 11.8494 20.002 14.2394 19.3454 15.61C19.0561 16.3045 18.9071 17.0496 18.9071 17.8021C18.9071 18.5546 19.0561 19.2997 19.3454 19.9942C19.4917 20.3437 19.7241 20.6503 20.021 20.8854C20.3178 21.1205 20.6694 21.2765 21.0428 21.3386C21.78 21.5017 22.5439 21.5017 23.2811 21.3386C23.6346 21.2207 23.9553 21.0211 24.2174 20.756V21.3386H27.3958ZM22.6655 18.8627C22.4726 18.8693 22.2829 18.8111 22.1268 18.6975C21.9706 18.5838 21.857 18.4211 21.8038 18.2353C21.6687 17.7465 21.6687 17.2302 21.8038 16.7415C21.9418 16.2075 24.0421 14.6876 24.0421 14.6876L24.1316 17.8133C24.1316 17.8133 23.2923 18.8627 22.6655 18.8627Z" fill="#1F4287"/>
<path d="M28.1083 7.46888V21.3386H31.7865L31.5776 12.5477C32.4284 11.2237 33.6988 10.2242 35.185 9.70954C35.185 8.49212 35.0209 6.46058 34.9798 5.62407C32.6893 6.46058 31.4732 9.04855 31.4732 9.04855L31.406 7.52116L28.1083 7.46888Z" fill="#1F4287"/>
<path d="M44.2538 8.21577C43.8397 6.97593 43.3436 6.41577 42.646 6.10954C41.9484 5.80332 39.2512 6.46431 39.2512 6.46431L39.2139 5.62407L36.0356 6.45311V25.7676L39.4116 25.0207V21.0249C39.4116 21.0249 44.0561 16.5734 44.4105 14.6763C44.7649 12.7793 44.6679 9.4444 44.2538 8.21577ZM41.4932 13.9668C41.2246 15.1133 39.3855 16.6444 39.3855 16.6444V9.92241C39.3855 9.92241 40.0048 9.50415 40.4412 9.59378C40.6906 9.65616 40.9192 9.78324 41.1039 9.96223C41.2886 10.1412 41.4229 10.3658 41.4932 10.6133C41.7036 11.7187 41.7036 12.8539 41.4932 13.9593V13.9668Z" fill="#1F4287"/>
<path d="M49.2414 14.3066C49.9055 13.9332 55.0237 11.9763 55.0237 11.9763C55.0237 11.9763 52.0691 5.31411 50.6553 5.31411C49.2414 5.31411 46.3429 9.57137 45.884 11.517C45.3733 13.4557 45.3733 15.4937 45.884 17.4324C46.9211 21.4618 50.8754 23.344 50.8754 23.344L53.0801 19.4714C52.2743 19.0456 47.7828 15.6846 49.2414 14.3066ZM50.4464 9.18672C50.9873 9.18672 51.6103 11.0166 51.6103 11.0166L48.8684 12.2938C48.8684 10.6693 49.9017 9.18672 50.4426 9.18672H50.4464Z" fill="#1F4287"/>
<path d="M55.2102 7.46888V21.3386H58.8884L58.6795 12.5477C59.5321 11.2208 60.8071 10.2207 62.2981 9.70954C62.2981 8.49212 62.1302 6.46058 62.0892 5.62407C59.8024 6.46058 58.5863 9.04855 58.5863 9.04855L58.5154 7.52116L55.2102 7.46888Z" fill="#1F4287"/>
<path d="M63.4172 22.205L63.7306 3.30871H66.7485C66.7485 3.30871 66.7859 11.5432 66.7485 12.4095C67.2335 12.7568 70.3932 7.55477 70.3932 7.55477L73.0046 9.57884C73.0046 9.57884 69.4308 13.5112 69.4643 14.3365C69.4979 15.1618 71.061 19.0195 72.5159 22.2124H68.9085C68.9085 22.2124 67.2783 16.1701 67.1402 15.8639C67.126 15.8166 67.101 15.7733 67.0673 15.7372C67.0336 15.7012 66.992 15.6734 66.9458 15.6561C66.8996 15.6387 66.85 15.6323 66.8009 15.6372C66.7518 15.6422 66.7046 15.6584 66.6628 15.6846L66.521 22.1975L63.4172 22.205Z" fill="#1F4287"/>
<path d="M79.9992 8.51826L78.7644 10.3444C78.7644 10.3444 77.7385 8.96266 77.3767 8.96266C77.0148 8.96266 76.4366 9.75809 76.3433 10.2622C76.1934 10.9393 76.2613 11.6465 76.5373 12.2826C76.888 12.9622 79.1188 16.1253 79.3837 17.1373C79.731 18.2307 79.731 19.405 79.3837 20.4983C79.0106 21.671 75.6532 25.1402 75.6532 25.1402L73.2284 22.7801C73.2284 22.7801 75.4107 20.6552 75.9218 19.7141C76.0807 19.3819 76.1632 19.0182 76.1632 18.6498C76.1632 18.2814 76.0807 17.9177 75.9218 17.5855C75.7539 17.268 73.9185 13.7838 73.635 12.6336C73.3252 11.5614 73.3252 10.4233 73.635 9.35104C73.9707 8.27925 76.1755 5.6166 76.8171 5.6166C77.4587 5.6166 79.9992 8.51826 79.9992 8.51826Z" fill="#1F4287"/>
</svg>
